<svg width="190" height="37" viewBox="0 0 190 37" fill="none" xmlns="http://www.w3.org/2000/svg">
<path d="M8.66412 22.2745L0.0239258 22.2839L5.79326 0.411103L23.3433 0.391973C24.1203 0.391126 26.0389 0.530438 27.0491 1.84279C27.7542 2.7575 27.8883 4.0606 27.4484 5.71565L26.3014 10.0231C25.7788 11.999 24.7294 13.49 23.1808 14.4553C21.6206 15.4278 19.9298 15.6323 18.7855 15.6335L10.4179 15.6427L8.66412 22.2731L8.66412 22.2745ZM13.4869 3.98883L11.3949 11.8849L15.4956 11.8805C16.6239 11.8792 17.3145 11.5782 17.7297 9.99896L18.8433 5.86351C19.0713 4.99444 19.0839 4.53668 18.8868 4.28179C18.7233 4.07059 18.4156 3.98346 17.8252 3.9841L13.4869 3.98883Z" fill="#2A7DE1"/>
<path d="M46.6292 22.2331L30.0777 22.2511C28.4187 22.2529 27.3979 21.9334 26.8666 21.2459C26.2987 20.5118 26.2683 19.3281 26.7691 17.4091L27.0712 16.3519C27.5386 14.5569 28.1307 13.4236 28.9885 12.6748C29.9016 11.8764 31.1549 11.5033 32.9319 11.5014L41.5269 11.492C41.5762 11.2601 41.6009 11.1654 41.6329 11.0443C41.6677 10.9146 41.7098 10.7542 41.7968 10.3648C41.8999 9.9959 41.8939 9.77287 41.7771 9.61848C41.6326 9.42767 41.3045 9.34202 40.7155 9.34266L32.4223 9.3517L33.2629 6.2122L45.5344 6.19883C47.3945 6.1968 48.5495 6.57164 49.1699 7.37711C49.8736 8.29328 49.9087 9.81516 49.2815 12.1658L47.4364 19.2307C47.2898 19.7775 47.1896 20.161 47.1069 20.473C46.9428 21.0986 46.8528 21.4398 46.6306 22.2316L46.6292 22.2331ZM37.1483 14.6353C35.95 14.6366 35.4006 14.8267 35.0929 16.0035L34.6574 17.7431C34.5079 18.2593 34.5111 18.58 34.6659 18.7854C34.8673 19.0534 35.3339 19.1068 35.9738 19.1061L37.8267 19.1041L38.2071 19.1052C39.3588 19.1039 39.5249 19.0308 40.017 17.1556L40.6892 14.6315L37.1483 14.6353Z" fill="#2A7DE1"/>
<path d="M61.9035 9.31956C60.8903 9.32066 60.4708 9.66224 60.192 10.6524L58.0329 18.5354C57.4406 20.7548 57.4753 20.5492 57.0238 22.2218L48.1416 22.2314C48.5947 20.6274 48.5598 20.7645 49.1507 18.5451L50.9279 12.0269C51.9037 8.44268 54.1374 6.18945 58.0195 6.18521L67.0751 6.17534C66.866 6.95985 66.4478 8.46181 66.2053 9.31487L61.9035 9.31956Z" fill="#2A7DE1"/>
<path d="M69.3383 22.2087C66.8309 22.2114 64.9244 21.1435 65.9564 16.9673L69.7504 1.79942L77.6413 1.79082L76.7415 5.43185L81.6906 5.42646L80.8574 8.70881L75.9098 8.7142L73.7123 17.5653C73.4467 18.637 73.5476 18.9212 74.9515 18.9196L78.7635 18.9155L77.9303 22.1993L69.3383 22.2087Z" fill="#2A7DE1"/>
<path d="M94.7221 9.28407C93.8999 9.28497 93.6944 9.32018 93.3188 9.76375C92.9081 10.2074 93.0107 10.6854 93.2167 11.0948L95.4845 16.0385C95.7928 16.6869 96.6855 18.4936 95.2489 20.5083C94.2911 21.8403 93.1267 22.1827 91.6865 22.1843L80.2065 22.1968L81.0603 19.0573L84.7266 19.0533C85.3097 19.0526 85.7891 18.8466 86.0628 18.5052C86.4049 18.1301 86.5064 17.6183 86.2668 17.1069L83.8617 11.9913C83.2786 10.661 83.3789 9.02383 84.5086 7.69166C85.6035 6.39451 86.768 6.15416 88.2432 6.15255L99.1401 6.14068L98.2863 9.28018L94.7221 9.28407Z" fill="#2A7DE1"/>
<path d="M117.825 22.1557L99.1543 22.176L104.894 0.303224L123.025 0.283462C124.653 0.281687 125.728 0.646416 126.31 1.39799C126.918 2.18452 126.992 3.41626 126.536 5.16462L126.032 7.14628C125.701 8.39303 124.659 9.84465 123.845 10.1896C124.546 10.7326 125.2 11.5351 124.724 13.3665L123.683 17.2978C122.838 20.5175 120.868 22.1524 117.825 22.1557ZM110.3 12.563L108.722 18.543L112.868 18.5385C114.151 18.5371 114.825 18.0466 115.123 16.8961C115.557 15.2993 115.827 14.2684 115.827 14.2655C115.975 13.6983 115.94 13.2682 115.721 12.9842C115.5 12.7017 115.093 12.5578 114.512 12.5584L110.3 12.563ZM112.581 3.91595L111.24 9.07645L115.553 9.07175C116.393 9.07084 116.978 8.58476 117.203 7.70402C117.203 7.70257 117.206 7.69527 117.21 7.68069C117.302 7.35697 117.511 6.60599 117.874 5.20905C117.993 4.73952 117.972 4.41154 117.812 4.20326C117.657 4.00663 117.37 3.91073 116.929 3.91121L112.581 3.91595Z" fill="#002857"/>
<path d="M145.761 22.1252L129.21 22.1432C127.551 22.145 126.53 21.8254 125.998 21.138C125.431 20.4039 125.4 19.2202 125.901 17.3012L126.203 16.244C126.67 14.449 127.263 13.3156 128.12 12.5669C129.033 11.7685 130.287 11.3954 132.064 11.3934L140.659 11.3841C140.708 11.1551 140.733 11.0604 140.763 10.9393C140.798 10.811 140.84 10.6492 140.927 10.2569C141.032 9.88799 141.026 9.66496 140.909 9.51057C140.764 9.31976 140.436 9.2341 139.847 9.23475L131.554 9.24379L132.395 6.10429L144.665 6.09092C146.525 6.08889 147.681 6.46373 148.302 7.2692C149.005 8.18537 149.041 9.70725 148.413 12.0579L146.568 19.1228C146.41 19.7104 146.305 20.11 146.22 20.4351C146.067 21.014 145.976 21.3611 145.762 22.1237L145.761 22.1252ZM136.28 14.5274C135.082 14.5287 134.532 14.7188 134.226 15.8956L133.789 17.6352C133.64 18.1514 133.642 18.4721 133.796 18.6775C133.998 18.9455 134.466 18.9989 135.104 18.9982L136.958 18.9962L137.339 18.9972C138.492 18.996 138.657 18.9229 139.149 17.0477L139.821 14.5236L136.28 14.5274Z" fill="#002857"/>
<path d="M161.787 9.21083C160.964 9.21172 160.759 9.24693 160.383 9.6905C159.973 10.1341 160.075 10.6122 160.281 11.0216L162.549 15.9653C162.857 16.6137 163.75 18.4203 162.313 20.4351C161.354 21.7671 160.19 22.1095 158.751 22.111L147.271 22.1235L148.125 18.984L151.791 18.98C152.374 18.9794 152.854 18.7733 153.127 18.4319C153.469 18.0569 153.572 17.5451 153.331 17.0337L150.926 11.9181C150.343 10.5878 150.443 8.95059 151.573 7.61841C152.668 6.32126 153.834 6.08092 155.306 6.07931L166.205 6.06743L165.351 9.20694L161.787 9.21083Z" fill="#002857"/>
<path d="M183.011 22.0849L168.612 22.1006C166.842 22.1025 165.764 21.7698 165.217 21.0547C164.653 20.3162 164.631 19.1456 165.147 17.2602L166.905 10.9126C167.396 9.11753 168.014 7.98271 168.913 7.2339C169.87 6.43546 171.182 6.06229 173.04 6.06027L185.711 6.04646C187.481 6.04453 188.559 6.37718 189.106 7.09235C189.669 7.83083 189.691 9.00139 189.176 10.8883L187.734 16.1422L173.792 16.1574L173.477 17.3196C173.311 17.8635 173.326 18.2557 173.522 18.5193C173.741 18.8135 174.2 18.9559 174.925 18.9551L183.89 18.9453L183.013 22.0834L183.011 22.0849ZM176.892 9.19465C176.003 9.19562 175.597 9.53572 175.34 10.4938L174.637 13.0194L180.461 13.013L181.163 10.4874C181.303 9.96683 181.298 9.64758 181.146 9.45095C181.01 9.27325 180.745 9.19045 180.315 9.19092L176.892 9.19465Z" fill="#002857"/>
<path d="M46.4831 35.0567C33.0466 34.8192 22.2516 29.2229 22.3697 22.5608C22.4014 20.8916 23.1125 19.3121 24.3734 17.8923C21.9205 19.7215 20.4724 21.9243 20.4298 24.3166C20.3103 30.9787 31.1053 36.5735 44.5418 36.8125C54.6138 36.9911 63.3091 34.1083 67.083 29.8461C62.7002 33.1221 55.0973 35.2106 46.4831 35.0567Z" fill="#1B2437"/>
<path d="M46.4831 35.0567C33.0466 34.8192 22.2516 29.2229 22.3697 22.5608C22.4014 20.8916 23.1125 19.3121 24.3734 17.8923C21.9205 19.7215 20.4724 21.9243 20.4298 24.3166C20.3103 30.9787 31.1053 36.5735 44.5418 36.8125C54.6138 36.9911 63.3091 34.1083 67.083 29.8461C62.7002 33.1221 55.0973 35.2106 46.4831 35.0567Z" fill="#2A7DE1" stroke="#2A7DE1" stroke-width="0.33748" stroke-miterlimit="10"/>
<path d="M57.2052 28.3837L63.6571 30.6538L59.6107 32.4441L57.2434 31.3139L55.44 31.2299L58.981 33.8938L71.473 28.3638C71.473 28.3638 70.603 27.3982 66.8832 29.21L58.2049 28.0634L57.2052 28.3837Z" fill="#1B2437"/>
<path d="M57.2052 28.3837L63.6571 30.6538L59.6107 32.4441L57.2434 31.3139L55.44 31.2299L58.981 33.8938L71.473 28.3638C71.473 28.3638 70.603 27.3982 66.8832 29.21L58.2049 28.0634L57.2052 28.3837Z" fill="#2A7DE1" stroke="#2A7DE1" stroke-width="0.33748" stroke-miterlimit="10" stroke-linecap="round" stroke-linejoin="round"/>
</svg>
